<svg width="185" height="30" fill="none" xmlns="http://www.w3.org/2000/svg"><path d="M0 5.75v16.092h8.53v-2.56H3.228V5.75H0Zm15.146 5.764c1.66 0 2.997 1.06 3.043 2.743h-6.063c.253-1.752 1.475-2.743 3.02-2.743Zm6.063 6.317h-3.481c-.415.852-1.176 1.544-2.56 1.544-1.613 0-2.904-1.06-3.065-2.95h9.336c.07-.416.093-.83.093-1.246 0-3.803-2.605-6.316-6.294-6.316-3.78 0-6.409 2.559-6.409 6.593 0 4.011 2.697 6.593 6.41 6.593 3.157 0 5.278-1.867 5.97-4.218Zm.926-2.421c0 3.988 2.582 6.64 5.81 6.64 2.029 0 3.481-.969 4.242-2.075v1.867h3.25V9.07h-3.25v1.821c-.761-1.06-2.167-2.028-4.219-2.028-3.25 0-5.833 2.559-5.833 6.547Zm10.052.046c0 2.42-1.614 3.758-3.39 3.758-1.728 0-3.365-1.383-3.365-3.804 0-2.42 1.637-3.712 3.366-3.712 1.775 0 3.389 1.337 3.389 3.758Zm4.65-.046c0 3.988 2.582 6.64 5.833 6.64 2.006 0 3.435-.923 4.196-2.099v1.89h3.273V4.783h-3.273v6.063c-.876-1.198-2.49-1.982-4.173-1.982-3.273 0-5.855 2.559-5.855 6.547Zm10.052.046c0 2.42-1.614 3.758-3.389 3.758-1.729 0-3.366-1.383-3.366-3.804 0-2.42 1.637-3.712 3.366-3.712 1.775 0 3.389 1.337 3.389 3.758ZM62.282 18.2c-.092-4.68-7.17-3.228-7.17-5.556 0-.738.623-1.222 1.822-1.222 1.268 0 2.052.668 2.144 1.66h3.09c-.185-2.536-2.053-4.22-5.142-4.22-3.158 0-5.048 1.707-5.048 3.828 0 4.68 7.215 3.227 7.215 5.51 0 .737-.691 1.314-1.96 1.314-1.29 0-2.19-.738-2.304-1.706h-3.251c.138 2.374 2.374 4.241 5.579 4.241 3.112 0 5.026-1.66 5.026-3.85Zm54.049 3.606h3.228v-7.493c0-3.527-2.167-5.463-5.233-5.463-1.868 0-3.551.99-4.38 2.443-.876-1.59-2.513-2.443-4.496-2.443-1.591 0-2.951.668-3.758 1.729V9.034h-3.227v12.772h3.227V14.75c0-2.028 1.13-3.089 2.882-3.089 1.706 0 2.836 1.06 2.836 3.09v7.054h3.227V14.75c0-2.028 1.13-3.089 2.859-3.089 1.706 0 2.835 1.06 2.835 3.09v7.054Zm4.539-6.432c0 3.988 2.582 6.64 5.809 6.64 2.029 0 3.481-.969 4.242-2.076v1.868h3.25V9.034h-3.25v1.821c-.761-1.06-2.167-2.028-4.219-2.028-3.25 0-5.832 2.559-5.832 6.547Zm10.051.046c0 2.42-1.614 3.758-3.389 3.758-1.729 0-3.366-1.384-3.366-3.804s1.637-3.712 3.366-3.712c1.775 0 3.389 1.337 3.389 3.758Zm8.708.023c0-2.467 1.153-3.204 3.066-3.204h.853v-3.39c-1.775 0-3.112.854-3.919 2.168V9.034h-3.227v12.772h3.227v-6.363Zm5.171 6.363h3.227v-5.44l4.334 5.44h4.196l-5.671-6.363 5.625-6.409h-4.196l-4.288 5.418V4.746H144.8v17.06Z" fill="#282B4B"/><path d="M162.827 11.478c1.66 0 2.997 1.06 3.044 2.743h-6.064c.254-1.752 1.476-2.743 3.02-2.743Zm6.064 6.316h-3.482c-.415.853-1.175 1.545-2.558 1.545-1.614 0-2.905-1.06-3.067-2.95h9.337c.069-.416.092-.83.092-1.246 0-3.804-2.605-6.316-6.293-6.316-3.781 0-6.409 2.559-6.409 6.593 0 4.011 2.697 6.593 6.409 6.593 3.158 0 5.279-1.867 5.971-4.219Zm2.263.046c0 2.928 1.637 3.966 4.081 3.966h2.028v-2.72h-1.498c-1.015 0-1.36-.37-1.36-1.222v-6.179h2.858v-2.65h-2.858v-3.16h-3.251v3.16h-1.521v2.65h1.521v6.155Zm10.616-9.456a3.227 3.227 0 0 0 3.231-3.23 3.23 3.23 0 0 0-3.231-3.231 3.23 3.23 0 1 0 0 6.461Zm0-.852a2.377 2.377 0 0 1-2.375-2.379 2.377 2.377 0 1 1 4.753 0 2.375 2.375 0 0 1-2.378 2.379Zm-1.167-.925h.775V5.606h.497l.46 1.001h.848l-.565-1.147c.287-.161.476-.448.476-.848 0-.626-.468-.985-1.033-.985h-1.458v2.98Zm.775-1.563V4.2h.489c.218 0 .412.118.412.412 0 .287-.19.432-.416.432h-.485Z" fill="#282B4B"/><path d="m75.06 18.283 8.4 3.426v6.709l-2.431 1.166-14.584-6.805V2.807L70.237 1l9.723 4.667L89.585 1l4.24 2.046v20.366l-5.714 2.728-3.095-1.49V12.862l-5 2.408-4.956-2.408v5.421Z" fill="#FF0208"/><path d="M75.103 18.273 83.5 21.66v6.754l-2.568 1.268-14.486-6.903V2.808l6.19 2.857v6.03l2.467 1.167v5.41Z" fill="#0269E1"/></svg>