<svg width="938" height="193" viewBox="0 0 938 193" fill="none" xmlns="http://www.w3.org/2000/svg">
<g clip-path="url(#clip0_11_423)">
<mask id="mask0_11_423" style="mask-type:luminance" maskUnits="userSpaceOnUse" x="-4" y="-4" width="946" height="201">
<path d="M941.173 -3.17435H-3.17322V196.174H941.173V-3.17435Z" fill="white"/>
</mask>
<g mask="url(#mask0_11_423)">
<path d="M-3.05176e-05 85.3504C14.2739 85.3504 26.5087 99.8036 40.7826 99.8036C55.0565 99.8036 67.2913 141.099 81.5652 141.099C95.8391 141.099 108.074 68.8323 122.348 68.8323C136.622 68.8323 148.856 85.3504 163.13 85.3504C177.404 85.3504 189.639 116.322 203.913 116.322C218.187 116.322 230.422 124.581 244.696 124.581C258.97 124.581 271.204 87.4151 285.478 87.4151C299.752 87.4151 311.987 62.6381 326.261 62.6381C340.535 62.6381 352.77 81.2208 367.043 81.2208C381.317 81.2208 393.552 101.868 407.826 101.868C422.1 101.868 434.335 132.84 448.609 132.84C462.883 132.84 475.117 108.063 489.391 108.063C503.665 108.063 515.9 118.386 530.174 118.386C544.448 118.386 556.683 70.8971 570.956 70.8971C585.23 70.8971 597.465 103.933 611.739 103.933C626.013 103.933 638.248 4.82501 652.522 4.82501C666.796 4.82501 679.03 120.451 693.304 120.451C707.578 120.451 719.813 147.293 734.087 147.293C748.361 147.293 760.596 91.5446 774.87 91.5446C789.143 91.5446 801.378 141.099 815.652 141.099C829.926 141.099 842.161 112.192 856.435 112.192C870.709 112.192 882.943 157.617 897.217 157.617C911.491 157.617 923.726 124.581 938 124.581" stroke="#E50F38" stroke-width="5"/>
</g>
<mask id="mask1_11_423" style="mask-type:luminance" maskUnits="userSpaceOnUse" x="-4" y="-4" width="946" height="201">
<path d="M941.173 -3.17435H-3.17322V196.174H941.173V-3.17435Z" fill="white"/>
</mask>
<g mask="url(#mask1_11_423)">
<path d="M-3.05176e-05 196.217V85.086C14.2739 85.086 26.5087 99.4919 40.7826 99.4919C55.0565 99.4919 67.2913 140.651 81.5652 140.651C95.8391 140.651 108.074 68.6222 122.348 68.6222C136.622 68.6222 148.856 85.086 163.13 85.086C177.404 85.086 189.639 115.956 203.913 115.956C218.187 115.956 230.422 124.188 244.696 124.188C258.97 124.188 271.204 87.144 285.478 87.144C299.752 87.144 311.987 62.4483 326.261 62.4483C340.535 62.4483 352.77 80.9701 367.043 80.9701C381.317 80.9701 393.552 101.55 407.826 101.55C422.1 101.55 434.335 132.419 448.609 132.419C462.883 132.419 475.117 107.724 489.391 107.724C503.665 107.724 515.9 118.014 530.174 118.014C544.448 118.014 556.683 70.6802 570.956 70.6802C585.23 70.6802 597.465 103.608 611.739 103.608C626.013 103.608 638.248 4.82501 652.522 4.82501C666.796 4.82501 679.03 120.072 693.304 120.072C707.578 120.072 719.813 146.825 734.087 146.825C748.361 146.825 760.596 91.26 774.87 91.26C789.143 91.26 801.378 140.651 815.652 140.651C829.926 140.651 842.161 111.84 856.435 111.84C870.709 111.84 882.943 157.115 897.217 157.115C911.491 157.115 923.726 124.188 938 124.188C938 124.188 938 124.188 938 196.217" fill="url(#paint0_linear_11_423)"/>
</g>
</g>
<defs>
<linearGradient id="paint0_linear_11_423" x1="-3.05176e-05" y1="4.82501" x2="-3.05176e-05" y2="196.217" gradientUnits="userSpaceOnUse">
<stop stop-color="#E50F38"/>
<stop offset="0.9" stop-color="white" stop-opacity="0.81"/>
<stop offset="1" stop-color="white" stop-opacity="0.81"/>
</linearGradient>
<clipPath id="clip0_11_423">
<rect width="938" height="193" fill="white"/>
</clipPath>
</defs>
</svg>
