<svg width="50" height="50" viewBox="0 0 50 50" fill="none" xmlns="http://www.w3.org/2000/svg">
<path d="M39.892 6.18954C39.5208 5.57397 38.9972 5.06444 38.3717 4.71011C37.7462 4.35578 37.04 4.1686 36.3212 4.16663H13.6795C12.2253 4.16663 10.8566 4.94163 10.1087 6.18954L4.46491 15.5937C4.26961 15.9175 4.16659 16.2885 4.16699 16.6666C4.17531 18.6775 4.91594 20.6164 6.25033 22.1208V39.5833C6.25033 41.8812 8.11908 43.75 10.417 43.75H39.5837C41.8816 43.75 43.7503 41.8812 43.7503 39.5833V22.1208C45.0847 20.6164 45.8253 18.6775 45.8337 16.6666C45.8341 16.2885 45.731 15.9175 45.5357 15.5937L39.892 6.18954ZM41.6337 17.1895C41.5051 18.1954 41.0146 19.1201 40.2539 19.7906C39.4932 20.4612 38.5144 20.8319 37.5003 20.8333C35.2024 20.8333 33.3337 18.9645 33.3337 16.6666C33.3337 16.525 33.2816 16.4 33.2524 16.2666L33.2941 16.2583L31.7087 8.33329H36.3212L41.6337 17.1895ZM22.5399 8.33329H27.4587L29.1524 16.802C29.0795 19.0354 27.2503 20.8333 25.0003 20.8333C22.7503 20.8333 20.9212 19.0354 20.8482 16.802L22.5399 8.33329ZM13.6795 8.33329H18.292L16.7087 16.2583L16.7503 16.2666C16.7191 16.4 16.667 16.525 16.667 16.6666C16.667 18.9645 14.7982 20.8333 12.5003 20.8333C11.4863 20.8319 10.5074 20.4612 9.74674 19.7906C8.98606 19.1201 8.49559 18.1954 8.36699 17.1895L13.6795 8.33329ZM20.8337 39.5833V33.3333H29.167V39.5833H20.8337ZM33.3337 39.5833V33.3333C33.3337 31.0354 31.4649 29.1666 29.167 29.1666H20.8337C18.5357 29.1666 16.667 31.0354 16.667 33.3333V39.5833H10.417V24.7041C11.0857 24.877 11.7753 25 12.5003 25C13.6833 25.0006 14.8527 24.7487 15.9305 24.2612C17.0084 23.7736 17.9697 23.0617 18.7503 22.1729C20.2774 23.9062 22.5149 25 25.0003 25C27.4857 25 29.7232 23.9062 31.2503 22.1729C32.031 23.0617 32.9923 23.7736 34.0701 24.2612C35.1479 24.7487 36.3174 25.0006 37.5003 25C38.2253 25 38.9149 24.877 39.5837 24.7041V39.5833H33.3337Z" fill="black"/>
<path d="M15.8182 38H8.18182C7.60316 38 7.04821 38.2299 6.63904 38.639C6.22987 39.0482 6 39.6032 6 40.1818V47.8182C6 48.3968 6.22987 48.9518 6.63904 49.361C7.04821 49.7701 7.60316 50 8.18182 50H15.8182C16.3968 50 16.9518 49.7701 17.361 49.361C17.7701 48.9518 18 48.3968 18 47.8182V40.1818C18 39.6032 17.7701 39.0482 17.361 38.639C16.9518 38.2299 16.3968 38 15.8182 38Z" fill="white"/>
<path d="M17 38.3889V35.2222C17 34.6623 16.801 34.1254 16.4468 33.7294C16.0925 33.3335 15.6121 33.1111 15.1111 33.1111H13.2222C13.2222 32.5512 13.0232 32.0142 12.669 31.6183C12.3147 31.2224 11.8343 31 11.3333 31H5.66667C5.1657 31 4.68526 31.2224 4.33102 31.6183C3.97678 32.0142 3.77778 32.5512 3.77778 33.1111H1.88889C1.38792 33.1111 0.907478 33.3335 0.553243 33.7294C0.199007 34.1254 0 34.6623 0 35.2222V47.8889C0 48.4488 0.199007 48.9858 0.553243 49.3817C0.907478 49.7776 1.38792 50 1.88889 50H5.66667V40.5C5.66667 39.9401 5.86567 39.4031 6.21991 39.0072C6.57415 38.6113 7.05459 38.3889 7.55556 38.3889H17Z" fill="white"/>
<path d="M14.5455 40H9.45455C9.06878 40 8.69881 40.1532 8.42603 40.426C8.15325 40.6988 8 41.0688 8 41.4545V46.5455C8 46.9312 8.15325 47.3012 8.42603 47.574C8.69881 47.8468 9.06878 48 9.45455 48H14.5455C14.9312 48 15.3012 47.8468 15.574 47.574C15.8468 47.3012 16 46.9312 16 46.5455V41.4545C16 41.0688 15.8468 40.6988 15.574 40.426C15.3012 40.1532 14.9312 40 14.5455 40Z" fill="black"/>
<path d="M15 38.4444V36.1111C15 35.6986 14.8478 35.3029 14.5769 35.0112C14.306 34.7194 13.9386 34.5556 13.5556 34.5556H12.1111C12.1111 34.143 11.9589 33.7473 11.688 33.4556C11.4172 33.1639 11.0498 33 10.6667 33H6.33333C5.95024 33 5.58284 33.1639 5.31196 33.4556C5.04107 33.7473 4.88889 34.143 4.88889 34.5556H3.44444C3.06135 34.5556 2.69395 34.7194 2.42307 35.0112C2.15218 35.3029 2 35.6986 2 36.1111V45.4444C2 45.857 2.15218 46.2527 2.42307 46.5444C2.69395 46.8361 3.06135 47 3.44444 47H6.33333V40C6.33333 39.5874 6.48552 39.1918 6.7564 38.9001C7.02729 38.6083 7.39469 38.4444 7.77778 38.4444H15ZM6.33333 36.1111V34.5556H10.6667V36.1111H6.33333Z" fill="black"/>
</svg>
