<svg width="50" height="50" viewBox="0 0 50 50" fill="none" xmlns="http://www.w3.org/2000/svg">
<g clip-path="url(#clip0_478_4)">
<path d="M39.8915 6.18954C39.5203 5.57397 38.9967 5.06444 38.3712 4.71011C37.7457 4.35578 37.0395 4.1686 36.3207 4.16663H13.679C12.2248 4.16663 10.8561 4.94163 10.1082 6.18954L4.46442 15.5937C4.26912 15.9175 4.1661 16.2885 4.16651 16.6666C4.17483 18.6775 4.91545 20.6164 6.24984 22.1208V39.5833C6.24984 41.8812 8.11859 43.75 10.4165 43.75H39.5832C41.8811 43.75 43.7498 41.8812 43.7498 39.5833V22.1208C45.0842 20.6164 45.8249 18.6775 45.8332 16.6666C45.8336 16.2885 45.7306 15.9175 45.5353 15.5937L39.8915 6.18954ZM41.6332 17.1895C41.5046 18.1954 41.0141 19.1201 40.2534 19.7906C39.4927 20.4612 38.5139 20.8319 37.4998 20.8333C35.2019 20.8333 33.3332 18.9645 33.3332 16.6666C33.3332 16.525 33.2811 16.4 33.2519 16.2666L33.2936 16.2583L31.7082 8.33329H36.3207L41.6332 17.1895ZM22.5394 8.33329H27.4582L29.1519 16.802C29.079 19.0354 27.2498 20.8333 24.9998 20.8333C22.7498 20.8333 20.9207 19.0354 20.8478 16.802L22.5394 8.33329ZM13.679 8.33329H18.2915L16.7082 16.2583L16.7498 16.2666C16.7186 16.4 16.6665 16.525 16.6665 16.6666C16.6665 18.9645 14.7978 20.8333 12.4998 20.8333C11.4858 20.8319 10.5069 20.4612 9.74625 19.7906C8.98557 19.1201 8.4951 18.1954 8.3665 17.1895L13.679 8.33329ZM20.8332 39.5833V33.3333H29.1665V39.5833H20.8332ZM33.3332 39.5833V33.3333C33.3332 31.0354 31.4644 29.1666 29.1665 29.1666H20.8332C18.5353 29.1666 16.6665 31.0354 16.6665 33.3333V39.5833H10.4165V24.7041C11.0853 24.877 11.7748 25 12.4998 25C13.6828 25.0006 14.8522 24.7487 15.9301 24.2612C17.0079 23.7736 17.9692 23.0617 18.7498 22.1729C20.2769 23.9062 22.5144 25 24.9998 25C27.4853 25 29.7228 23.9062 31.2498 22.1729C32.0305 23.0617 32.9918 23.7736 34.0696 24.2612C35.1474 24.7487 36.3169 25.0006 37.4998 25C38.2248 25 38.9144 24.877 39.5832 24.7041V39.5833H33.3332Z" fill="black"/>
<path d="M12.8571 35H2.14286C0.961071 35 0 35.9611 0 37.1429V47.8571C0 49.0389 0.961071 50 2.14286 50H12.8571C14.0389 50 15 49.0389 15 47.8571V37.1429C15 35.9611 14.0389 35 12.8571 35Z" fill="white"/>
<path d="M15.1429 33H5.85714C5.3646 33 4.89223 33.1957 4.54394 33.5439C4.19566 33.8922 4 34.3646 4 34.8571V36.7143H11.4286C11.9211 36.7143 12.3935 36.9099 12.7418 37.2582C13.0901 37.6065 13.2857 38.0789 13.2857 38.5714V46H15.1429C15.6354 46 16.1078 45.8043 16.4561 45.4561C16.8043 45.1078 17 44.6354 17 44.1429V34.8571C17 34.3646 16.8043 33.8922 16.4561 33.5439C16.1078 33.1957 15.6354 33 15.1429 33Z" fill="white"/>
<path d="M9.22564 39.3684H2.19557C1.42015 39.3684 0.789551 39.999 0.789551 40.7744V47.8045C0.789551 48.5799 1.42015 49.2105 2.19557 49.2105H9.22564C10.0011 49.2105 10.6317 48.5799 10.6317 47.8045V40.7744C10.6317 39.999 10.0011 39.3684 9.22564 39.3684Z" fill="black"/>
<path d="M13.5717 34.8948H5.90249C5.49569 34.8948 5.10555 35.0564 4.8179 35.344C4.53025 35.6317 4.36865 36.0218 4.36865 36.4286V37.9624H10.504C10.9108 37.9624 11.3009 38.124 11.5886 38.4117C11.8762 38.6993 12.0378 39.0895 12.0378 39.4963V45.6316H13.5717C13.9785 45.6316 14.3686 45.47 14.6562 45.1824C14.9439 44.8947 15.1055 44.5046 15.1055 44.0978V36.4286C15.1055 36.0218 14.9439 35.6317 14.6562 35.344C14.3686 35.0564 13.9785 34.8948 13.5717 34.8948Z" fill="black"/>
</g>
<defs>
<clipPath id="clip0_478_4">
<rect width="50" height="50" fill="white"/>
</clipPath>
</defs>
</svg>
